<?xml version="1.0" encoding="UTF-8"?>
<svg width="1200pt" height="1200pt" version="1.1" viewBox="0 0 1200 1200" xmlns="http://www.w3.org/2000/svg">
 <path d="m547.78 871.66c-5.0938 0-9.9766-2.0234-13.578-5.625-3.6016-3.5977-5.625-8.4844-5.625-13.574 0-5.0938 2.0234-9.9766 5.625-13.578 3.6016-3.6016 8.4844-5.6211 13.578-5.6211 5.0898 0 9.9727 2.0195 13.574 5.6211 3.6016 3.6016 5.625 8.4844 5.625 13.578 0 5.0898-2.0234 9.9766-5.625 13.574-3.6016 3.6016-8.4844 5.625-13.574 5.625z" fill="#fff"/>
 <path d="m214.46 871.66c-5.0938 0-9.9766-2.0234-13.578-5.625-3.6016-3.5977-5.6211-8.4844-5.6211-13.574 0-5.0938 2.0195-9.9766 5.6211-13.578 3.6016-3.6016 8.4844-5.6211 13.578-5.6211 5.0898 0 9.9766 2.0195 13.574 5.6211 3.6016 3.6016 5.625 8.4844 5.625 13.578 0 5.0898-2.0234 9.9766-5.625 13.574-3.5977 3.6016-8.4844 5.625-13.574 5.625z" fill="#fff"/>
 <path d="m985.54 871.66c-5.0898 0-9.9766-2.0234-13.574-5.625-3.6016-3.5977-5.625-8.4844-5.625-13.574 0-5.0938 2.0234-9.9766 5.625-13.578 3.5977-3.6016 8.4844-5.6211 13.574-5.6211 5.0938 0 9.9766 2.0195 13.578 5.6211 3.6016 3.6016 5.6211 8.4844 5.6211 13.578 0 5.0898-2.0195 9.9766-5.6211 13.574-3.6016 3.6016-8.4844 5.625-13.578 5.625z" fill="#fff"/>
 <path d="m652.22 871.66c-5.0898 0-9.9727-2.0234-13.574-5.625-3.6016-3.5977-5.625-8.4844-5.625-13.574 0-5.0938 2.0234-9.9766 5.625-13.578 3.6016-3.6016 8.4844-5.6211 13.574-5.6211 5.0938 0 9.9766 2.0195 13.578 5.6211 3.6016 3.6016 5.625 8.4844 5.625 13.578 0 5.0898-2.0234 9.9766-5.625 13.574-3.6016 3.6016-8.4844 5.625-13.578 5.625z" fill="#fff"/>
 <path d="m508.34 777.86h-254.4c-11.16-0.011719-21.863-4.4492-29.754-12.344-7.8906-7.8906-12.332-18.59-12.344-29.75v-76.441c-4.7031-0.51562-9.0508-2.7461-12.211-6.2695-3.1562-3.5273-4.9023-8.0898-4.9023-12.824v-40.965c0-5.0938 2.0234-9.9766 5.625-13.578 3.6016-3.6016 8.4844-5.625 13.578-5.625h334.46c5.0938 0 9.9766 2.0234 13.578 5.625 3.6016 3.6016 5.625 8.4844 5.625 13.578v40.969-0.003906c0 4.7344-1.7461 9.3008-4.9102 12.824-3.1602 3.5273-7.5078 5.7578-12.215 6.2695v76.441c-0.011718 11.164-4.457 21.871-12.355 29.762-7.9023 7.8945-18.609 12.328-29.777 12.332zm-275.25-156.71c4.6992 0.51562 9.0469 2.7461 12.203 6.2656 3.1602 3.5234 4.9062 8.0859 4.9062 12.812v95.535c0.007812 2.0352 1.6602 3.6875 3.6953 3.6953h254.4c2.0391 0 3.6953-1.6562 3.6953-3.6953v-95.535c0.003906-4.7422 1.7656-9.3164 4.9414-12.84 3.1797-3.5234 7.5469-5.7461 12.266-6.2383v-2.6875h-296.11z" fill="#fff"/>
 <path d="m536 618.48c-4.5859-0.007813-9.0156-1.6562-12.492-4.6484-3.4766-2.9922-5.7656-7.1289-6.457-11.66-6-39.254-40.512-68.844-80.293-68.844h-111.29c-39.781 0-74.293 29.594-80.281 68.844-1.0312 6.7812-5.6016 12.5-11.992 14.996-6.3867 2.5-13.625 1.3984-18.984-2.8828-5.3555-4.2852-8.0234-11.102-6.9922-17.887 4.3555-28.242 18.668-53.992 40.355-72.602 21.688-18.605 49.316-28.836 77.895-28.844h111.32c28.57 0.007813 56.195 10.242 77.879 28.848 21.68 18.609 35.988 44.359 40.332 72.598 0.76953 5.0352-0.49609 10.168-3.5078 14.27-3.0156 4.1016-7.5391 6.8398-12.57 7.6094-0.97266 0.13672-1.9492 0.20703-2.9297 0.20312z" fill="#fff"/>
 <path d="m600 1099.2h-437.76c-5.0898 0-9.9727-2.0234-13.574-5.6211-3.6016-3.6016-5.625-8.4844-5.625-13.578v-136.05c0-73.094 65.832-132.56 146.75-132.56h9.3594l0.003907-0.003906c6.8594 0 13.199 3.6602 16.629 9.6016 3.4297 5.9414 3.4297 13.258 0 19.199-3.4297 5.9414-9.7695 9.6016-16.629 9.6016h-9.3594c-59.734 0-108.35 42.238-108.35 94.164v116.86h399.36v-116.86c0-51.926-48.602-94.164-108.35-94.164h-9.3594c-6.8594 0-13.199-3.6602-16.629-9.6016-3.4297-5.9414-3.4297-13.258 0-19.199 3.4297-5.9414 9.7695-9.6016 16.629-9.6016h9.3594c80.914 0 146.75 59.473 146.75 132.56v136.06c0 5.0938-2.0234 9.9766-5.6211 13.578-3.6016 3.5977-8.4844 5.6211-13.578 5.6211z" fill="#fff"/>
 <path d="m381.12 910.3h-0.17969c-22.68-0.22656-54.926-22.645-95.844-66.637-4.6328-4.9805-8.6172-9.2773-11.113-72.648-0.26953-6.8594 3.1406-13.34 8.9453-17.004 5.8047-3.6641 13.125-3.9531 19.199-0.75781 6.0742 3.1953 9.9844 9.3906 10.254 16.25 0.75781 19.199 2.3984 42.422 3.8047 51.156 34.801 36.793 58.066 50.914 64.957 51.238 6.8867-0.32422 30.18-14.398 64.957-51.238 1.4414-8.7344 3.0586-32.004 3.8164-51.156h-0.003907c0.27344-6.8594 4.1797-13.055 10.258-16.25 6.0742-3.1953 13.395-2.9062 19.199 0.75781 5.8047 3.6641 9.2148 10.145 8.9453 17.004-2.4961 63.371-6.4805 67.668-11.102 72.637-40.922 44.004-73.199 66.422-95.844 66.648z" fill="#fff"/>
 <path d="m293.17 789.46c-5.0078-0.003906-9.8203-1.9609-13.402-5.4609-4.0781-3.9844-8.125-8.2422-12-12.672-4.5234-5.1602-5.9453-12.34-3.7383-18.836 2.207-6.4922 7.7109-11.316 14.441-12.652 6.7266-1.3359 13.66 1.0195 18.18 6.1797 3.2148 3.6719 6.5508 7.1992 9.9258 10.488h-0.003906c3.6719 3.5742 5.7578 8.4648 5.8008 13.586 0.046875 5.1211-1.957 10.051-5.5664 13.688-3.6055 3.6367-8.5156 5.6797-13.637 5.6797z" fill="#fff"/>
 <path d="m469.07 789.46c-5.1211 0-10.031-2.043-13.637-5.6797-3.6055-3.6367-5.6094-8.5664-5.5664-13.688s2.1328-10.012 5.8008-13.586c3.3711-3.2891 6.7188-6.8164 9.9258-10.488 3.3555-3.8281 8.0938-6.1719 13.176-6.5039 5.082-0.33594 10.09 1.3594 13.918 4.7148 3.832 3.3594 6.1719 8.0977 6.5078 13.18 0.33203 5.082-1.3633 10.086-4.7188 13.918-3.875 4.4141-7.9062 8.6875-12 12.672-3.5781 3.5078-8.3945 5.4688-13.406 5.4609z" fill="#fff"/>
 <path d="m506.98 1099.2c-5.0938 0-9.9766-2.0234-13.578-5.6211-3.5977-3.6016-5.6211-8.4844-5.6211-13.578v-245.22c0-6.8594 3.6562-13.199 9.5977-16.629 5.9414-3.4297 13.262-3.4297 19.199 0 5.9414 3.4297 9.6016 9.7695 9.6016 16.629v245.22c0 5.0938-2.0234 9.9766-5.625 13.578-3.5977 3.5977-8.4844 5.6211-13.574 5.6211z" fill="#fff"/>
 <path d="m255.27 1099.2c-5.0938 0-9.9766-2.0234-13.578-5.6211-3.6016-3.6016-5.625-8.4844-5.625-13.578v-245.22c0-6.8594 3.6602-13.199 9.6016-16.629 5.9414-3.4297 13.258-3.4297 19.199 0 5.9414 3.4297 9.6016 9.7695 9.6016 16.629v245.22c0 5.0938-2.0234 9.9766-5.625 13.578-3.6016 3.5977-8.4844 5.6211-13.574 5.6211z" fill="#fff"/>
 <path d="m946.11 777.86h-254.4c-11.16-0.011719-21.859-4.4492-29.75-12.344-7.8945-7.8906-12.332-18.59-12.344-29.75v-76.441c-4.7227-0.49219-9.0938-2.7148-12.27-6.2422-3.1797-3.5273-4.9375-8.1016-4.9414-12.852v-40.965c0-5.0938 2.0234-9.9766 5.625-13.578 3.6016-3.6016 8.4844-5.625 13.578-5.625h334.51c5.0898 0 9.9727 2.0234 13.574 5.625 3.6016 3.6016 5.625 8.4844 5.625 13.578v40.969-0.003906c0 4.7344-1.7461 9.2969-4.9023 12.824-3.1602 3.5234-7.5078 5.7539-12.211 6.2695v76.441c-0.011719 11.16-4.4492 21.859-12.344 29.75-7.8906 7.8945-18.59 12.332-29.75 12.344zm-275.3-156.71c4.7031 0.51172 9.0508 2.7422 12.211 6.2617 3.1602 3.5234 4.9102 8.0859 4.9141 12.816v95.535c0 2.0391 1.6523 3.6953 3.6953 3.6953h254.4c2.0391-0.007813 3.6914-1.6602 3.6953-3.6953v-95.535c0.003906-4.7266 1.75-9.2891 4.9062-12.812 3.1602-3.5195 7.5039-5.75 12.207-6.2656v-2.6875h-296.03z" fill="#fff"/>
 <path d="m973.77 618.48c-4.5898-0.003907-9.0234-1.6523-12.5-4.6445-3.4805-2.9922-5.7695-7.1289-6.4609-11.664-6-39.254-40.5-68.844-80.281-68.844h-111.32c-39.781 0-74.293 29.594-80.293 68.844-0.54297 5.2227-3.1992 9.9922-7.3516 13.203-4.1562 3.2109-9.4414 4.582-14.633 3.793-5.1914-0.78906-9.832-3.6719-12.84-7.9727-3.0117-4.3008-4.1289-9.6484-3.0938-14.797 4.3398-28.242 18.645-54 40.328-72.613 21.68-18.609 49.309-28.848 77.883-28.855h111.29c28.586 0 56.227 10.23 77.922 28.844 21.695 18.609 36.016 44.375 40.363 72.625 0.76562 5.0352-0.49609 10.172-3.5156 14.273-3.0195 4.1016-7.543 6.8359-12.578 7.6055-0.96484 0.13672-1.9414 0.20703-2.9141 0.20312z" fill="#fff"/>
 <path d="m1037.8 1099.2h-437.76c-5.0938 0-9.9766-2.0234-13.578-5.6211-3.5977-3.6016-5.6211-8.4844-5.6211-13.578v-136.05c0-73.094 65.832-132.56 146.75-132.56h9.3594v-0.003906c6.8594 0 13.199 3.6602 16.629 9.6016 3.4297 5.9414 3.4297 13.258 0 19.199-3.4297 5.9414-9.7695 9.6016-16.629 9.6016h-9.3594c-59.746 0-108.35 42.238-108.35 94.164v116.86h399.36v-116.86c0-51.926-48.613-94.164-108.35-94.164h-9.3594c-6.8594 0-13.199-3.6602-16.629-9.6016-3.4297-5.9414-3.4297-13.258 0-19.199 3.4297-5.9414 9.7695-9.6016 16.629-9.6016h9.3594c80.914 0 146.75 59.473 146.75 132.56l0.003907 136.06c0 5.0938-2.0234 9.9766-5.625 13.578-3.6016 3.5977-8.4844 5.6211-13.574 5.6211z" fill="#fff"/>
 <path d="m818.88 910.3h-0.19141c-22.668-0.22656-54.926-22.645-95.832-66.637-4.6328-4.9805-8.6172-9.2773-11.113-72.648-0.26953-6.8594 3.1406-13.34 8.9453-17.004 5.8086-3.6641 13.125-3.9531 19.203-0.75781 6.0742 3.1953 9.9844 9.3906 10.254 16.25 0.75781 19.199 2.3984 42.422 3.8164 51.156 34.801 36.793 58.066 50.914 64.957 51.238 6.8867-0.32422 30.18-14.398 64.957-51.238 1.4414-8.7344 3.0586-32.016 3.8047-51.156h-0.003907c0.26953-6.8594 4.1797-13.055 10.254-16.25 6.0781-3.1953 13.395-2.9062 19.199 0.75781 5.8086 3.6641 9.2188 10.145 8.9453 17.004-2.4961 63.371-6.4805 67.668-11.102 72.637-40.934 44.004-73.199 66.422-95.855 66.648z" fill="#fff"/>
 <path d="m730.93 789.46c-5.0117 0.007813-9.8281-1.9531-13.406-5.4609-4.0938-3.9844-8.125-8.2578-12-12.672-4.375-5.1758-5.6992-12.277-3.4805-18.68 2.2188-6.4062 7.6484-11.164 14.289-12.523 6.6406-1.3633 13.508 0.87891 18.062 5.8945 3.2031 3.6719 6.5508 7.1992 9.9258 10.488 3.668 3.5742 5.7578 8.4648 5.8008 13.586s-1.9609 10.051-5.5664 13.688c-3.6055 3.6367-8.5156 5.6797-13.637 5.6797z" fill="#fff"/>
 <path d="m906.83 789.46c-5.1211 0-10.031-2.043-13.637-5.6797-3.6094-3.6367-5.6133-8.5664-5.5664-13.688 0.042969-5.1211 2.1289-10.012 5.8008-13.586 3.3711-3.2891 6.707-6.8164 9.9258-10.488h-0.003906c3.3555-3.8281 8.0977-6.1719 13.18-6.5039 5.0781-0.33594 10.086 1.3594 13.918 4.7148 3.8281 3.3594 6.168 8.0977 6.5039 13.18 0.33594 5.082-1.3594 10.086-4.7188 13.918-3.875 4.4297-7.9219 8.6875-12 12.672-3.582 3.5-8.3945 5.457-13.402 5.4609z" fill="#fff"/>
 <path d="m944.73 1099.2c-5.0898 0-9.9727-2.0234-13.574-5.6211-3.6016-3.6016-5.625-8.4844-5.625-13.578v-245.22c0-6.8594 3.6602-13.199 9.6016-16.629 5.9414-3.4297 13.258-3.4297 19.199 0 5.9414 3.4297 9.6016 9.7695 9.6016 16.629v245.22c0 5.0938-2.0234 9.9766-5.625 13.578-3.6016 3.5977-8.4844 5.6211-13.578 5.6211z" fill="#fff"/>
 <path d="m693.02 1099.2c-5.0898 0-9.9766-2.0234-13.574-5.6211-3.6016-3.6016-5.625-8.4844-5.625-13.578v-245.22c0-6.8594 3.6602-13.199 9.6016-16.629 5.9375-3.4297 13.258-3.4297 19.199 0 5.9414 3.4297 9.5977 9.7695 9.5977 16.629v245.22c0 5.0938-2.0234 9.9766-5.6211 13.578-3.6016 3.5977-8.4844 5.6211-13.578 5.6211z" fill="#fff"/>
 <path d="m727.2 383.73h-254.4c-11.164-0.003906-21.871-4.4414-29.77-12.332-7.8945-7.8945-12.34-18.598-12.352-29.762v-76.441c-4.7031-0.51562-9.0508-2.7461-12.211-6.2695-3.1562-3.5234-4.9023-8.0898-4.9023-12.82v-40.91c0-5.0898 2.0234-9.9766 5.625-13.574 3.6016-3.6016 8.4844-5.625 13.578-5.625h334.46c5.0938 0 9.9766 2.0234 13.578 5.625 3.6016 3.5977 5.625 8.4844 5.625 13.574v40.969c-0.015625 4.7227-1.7656 9.2734-4.9258 12.781-3.1562 3.5117-7.4961 5.7383-12.188 6.25v76.441c-0.011718 11.164-4.457 21.867-12.352 29.762-7.8984 7.8906-18.605 12.328-29.77 12.332zm-275.23-156.71c4.6992 0.51562 9.0469 2.7461 12.203 6.2656 3.1602 3.5234 4.9062 8.0859 4.9062 12.816v95.531c0.007813 2.0391 1.6602 3.6875 3.6992 3.6953h254.42c2.0391-0.007813 3.6914-1.6562 3.6953-3.6953v-95.531c0.003907-4.7305 1.75-9.293 4.9062-12.816 3.1602-3.5195 7.5039-5.75 12.207-6.2656v-2.6289h-296.04z" fill="#fff"/>
 <path d="m754.88 224.4c-4.5859-0.003907-9.0156-1.6484-12.496-4.6367-3.4766-2.9883-5.7695-7.125-6.4609-11.656-6-39.254-40.5-68.844-80.281-68.844h-111.29c-39.781 0-74.293 29.594-80.281 68.844-1.0352 6.7812-5.6094 12.496-12 14.988-6.3906 2.4961-13.629 1.3906-18.984-2.8945-5.3555-4.2891-8.0156-11.109-6.9805-17.891 4.3398-28.254 18.648-54.02 40.336-72.641 21.688-18.617 49.324-28.859 77.91-28.867h111.29c28.574 0.007813 56.203 10.238 77.895 28.844 21.688 18.609 36 44.359 40.352 72.602 0.76953 5.0352-0.49609 10.172-3.5117 14.273-3.0195 4.1016-7.543 6.8398-12.578 7.6055-0.96484 0.16406-1.9375 0.25391-2.918 0.27344z" fill="#fff"/>
 <path d="m687.95 333.74h-175.9c-5.0898 0-9.9727-2.0195-13.574-5.6211-3.6016-3.6016-5.625-8.4844-5.625-13.578v-62.543c0-5.0938 2.0234-9.9766 5.625-13.578 3.6016-3.5977 8.4844-5.6211 13.574-5.6211h175.9c5.0898 0 9.9727 2.0234 13.574 5.6211 3.6016 3.6016 5.625 8.4844 5.625 13.578v62.605c-0.015626 5.082-2.0469 9.9492-5.6445 13.535-3.5977 3.5898-8.4727 5.6016-13.555 5.6016zm-156.7-38.398h137.49v-24.145h-137.49z" fill="#fff"/>
 <path d="m469.07 729.84h-175.89c-5.0938 0-9.9766-2.0234-13.578-5.625-3.5977-3.5977-5.6211-8.4844-5.6211-13.574v-62.641c0-5.0938 2.0234-9.9766 5.6211-13.578 3.6016-3.5977 8.4844-5.6211 13.578-5.6211h175.89c5.0938 0 9.9766 2.0234 13.578 5.6211 3.6016 3.6016 5.625 8.4844 5.625 13.578v62.641c0 5.0898-2.0234 9.9766-5.625 13.574-3.6016 3.6016-8.4844 5.625-13.578 5.625zm-156.7-38.398h137.5v-24.242h-137.5z" fill="#fff"/>
 <path d="m906.83 729.84h-175.89c-5.0938 0-9.9766-2.0234-13.578-5.625-3.6016-3.5977-5.625-8.4844-5.625-13.574v-62.641c0-5.0938 2.0234-9.9766 5.625-13.578 3.6016-3.5977 8.4844-5.6211 13.578-5.6211h175.89c5.0938 0 9.9766 2.0234 13.578 5.6211 3.5977 3.6016 5.6211 8.4844 5.6211 13.578v62.641c0 5.0898-2.0234 9.9766-5.6211 13.574-3.6016 3.6016-8.4844 5.625-13.578 5.625zm-156.7-38.398h137.5v-24.242h-137.5z" fill="#fff"/>
 <path d="m812.4 533.33c-3.918 0-7.7461-1.2031-10.965-3.4414-3.2148-2.2383-5.6719-5.4102-7.0352-9.0859-6.9375-18.574-20.172-34.633-38.27-46.43h0.003906c-10.723-6.9414-22.531-12.043-34.934-15.094-9.7695-2.4141-19.801-3.6211-29.867-3.6016h-9.3711c-6.8594 0-13.199-3.6602-16.629-9.6016-3.4297-5.9375-3.4297-13.258 0-19.199 3.4297-5.9414 9.7695-9.5977 16.629-9.5977h9.3711c13.199-0.003906 26.348 1.6094 39.156 4.7969 16.566 4.0938 32.332 10.93 46.645 20.223 25.031 16.309 43.453 38.844 53.281 65.184h-0.003906c2.1992 5.8945 1.3711 12.496-2.2188 17.664-3.5938 5.168-9.4883 8.2461-15.781 8.2422z" fill="#fff"/>
 <path d="m387.6 533.33c-6.293 0.003906-12.188-3.0781-15.781-8.2461-3.5898-5.168-4.418-11.766-2.2188-17.66 9.8281-26.398 28.246-48.875 53.293-65.184l-0.003906-0.003906c14.309-9.293 30.07-16.129 46.633-20.219 12.809-3.1875 25.957-4.8008 39.156-4.8008h9.3711c6.8594 0 13.199 3.6602 16.629 9.6016 3.4297 5.9414 3.4297 13.258 0 19.199-3.4297 5.9414-9.7695 9.6016-16.629 9.6016h-9.3711c-10.066-0.023438-20.094 1.1875-29.867 3.5977-12.414 3.0586-24.23 8.1719-34.957 15.133-18.109 11.797-31.344 27.852-38.281 46.43-1.3555 3.6758-3.8047 6.8477-7.0195 9.0938-3.2109 2.2422-7.0352 3.4492-10.953 3.457z" fill="#fff"/>
 <path d="m600 516.17h-0.19141c-22.609-0.16797-54.926-22.645-95.809-66.648-4.6328-4.9688-8.6172-9.2656-11.113-72.637-0.26953-6.8594 3.1406-13.34 8.9453-17.004 5.8086-3.6641 13.125-3.9531 19.203-0.75781 6.0742 3.1953 9.9844 9.3906 10.254 16.25 0.74219 19.141 2.3984 42.422 3.8047 51.145 34.801 36.805 58.066 50.93 64.957 51.238 6.8867-0.3125 30.18-14.398 64.957-51.238 1.4414-8.7227 3.0586-32.004 3.8047-51.145h-0.003906c0.26953-6.8594 4.1797-13.055 10.254-16.25 6.0742-3.1953 13.395-2.9062 19.199 0.75781 5.8047 3.6641 9.2148 10.145 8.9453 17.004-2.4961 63.371-6.4805 67.668-11.102 72.637-40.922 44.004-73.199 66.422-95.844 66.648z" fill="#fff"/>
 <path d="m512.05 395.32c-5.0078 0-9.8164-1.9531-13.402-5.4492-4.0938-3.9961-8.1367-8.2578-12-12.672-4.5195-5.1602-5.9453-12.34-3.7383-18.832 2.207-6.4961 7.7148-11.32 14.441-12.656 6.7305-1.3359 13.66 1.0195 18.18 6.1797 3.2031 3.6602 6.5508 7.1992 9.9258 10.488 3.6602 3.5742 5.7461 8.4648 5.7891 13.582 0.039062 5.1211-1.9648 10.043-5.5664 13.676-3.6055 3.6367-8.5078 5.6797-13.629 5.6836z" fill="#fff"/>
 <path d="m687.95 395.32c-5.1133-0.007812-10.012-2.0547-13.609-5.6875-3.5977-3.6289-5.5977-8.543-5.5586-13.656 0.035156-5.1094 2.1094-9.9961 5.7617-13.574 3.3711-3.3008 6.7188-6.8281 9.9258-10.488 3.3555-3.8281 8.0938-6.168 13.176-6.5039s10.09 1.3633 13.918 4.7188c3.832 3.3555 6.1719 8.0938 6.5078 13.176 0.33594 5.082-1.3633 10.09-4.7188 13.918-3.8633 4.4141-7.9062 8.6758-12 12.672-3.5898 3.4883-8.3984 5.4336-13.402 5.4258z" fill="#fff"/>
 <path d="m766.66 477.53c-5.0938 0-9.9766-2.0234-13.578-5.6211-3.5977-3.6016-5.6211-8.4844-5.6211-13.578s2.0234-9.9766 5.6211-13.578c3.6016-3.5977 8.4844-5.6211 13.578-5.6211s9.9766 2.0234 13.578 5.6211c3.5977 3.6016 5.6211 8.4844 5.6211 13.578s-2.0234 9.9766-5.6211 13.578c-3.6016 3.5977-8.4844 5.6211-13.578 5.6211z" fill="#fff"/>
 <path d="m725.86 540.53c-5.0898 0-9.9766-2.0234-13.574-5.6211-3.6016-3.6016-5.625-8.4844-5.625-13.578v-80.676c0-6.8594 3.6602-13.199 9.6016-16.629 5.9375-3.4297 13.258-3.4297 19.199 0 5.9414 3.4297 9.5977 9.7695 9.5977 16.629v80.676c0 5.0938-2.0234 9.9766-5.6211 13.578-3.6016 3.5977-8.4844 5.6211-13.578 5.6211z" fill="#fff"/>
 <path d="m474.14 540.53c-5.0938 0-9.9766-2.0234-13.578-5.6211-3.5977-3.6016-5.6211-8.4844-5.6211-13.578v-80.676c0-6.8594 3.6562-13.199 9.5977-16.629 5.9414-3.4297 13.262-3.4297 19.199 0 5.9414 3.4297 9.6016 9.7695 9.6016 16.629v80.676c0 5.0938-2.0234 9.9766-5.625 13.578-3.5977 3.5977-8.4844 5.6211-13.574 5.6211z" fill="#fff"/>
 <path d="m433.34 477.53c-5.0938 0-9.9766-2.0234-13.578-5.6211-3.5977-3.6016-5.6211-8.4844-5.6211-13.578s2.0234-9.9766 5.6211-13.578c3.6016-3.5977 8.4844-5.6211 13.578-5.6211s9.9766 2.0234 13.578 5.6211c3.5977 3.6016 5.6211 8.4844 5.6211 13.578s-2.0234 9.9766-5.6211 13.578c-3.6016 3.5977-8.4844 5.6211-13.578 5.6211z" fill="#fff"/>
</svg>
